<?xml version="1.0" encoding="UTF-8"?>
<svg id="Layer_1" data-name="Layer 1" xmlns="http://www.w3.org/2000/svg" viewBox="0 0 212.6 42.52">
  <defs>
    <style>
      .cls-1 {
        fill: #231f20;
        fill-rule: evenodd;
        stroke-width: 0px;
      }
    </style>
  </defs>
  <path class="cls-1" d="m112.29,29.62v-9.88h24.36c1.05,0,1.91-.85,1.91-1.91s-.85-1.91-1.91-1.91h-24.36v-3.03h24.98c2.83,0,4.31,2.28,4.31,4.53,0,1.55-.73,3.18-2.29,3.83,1.56.64,2.29,2.28,2.29,3.83,0,2.25-1.48,4.53-4.31,4.53h-24.98Zm24.36-3.03c1.05,0,1.91-.86,1.91-1.91s-.85-1.91-1.91-1.91h-21.33v3.81h21.33Z"/>
  <path class="cls-1" d="m8.84,29.62c-2.5,0-4.54-2.03-4.54-4.54v-7.65c0-2.5,2.03-4.54,4.54-4.54h20.2c2.5,0,4.54,2.03,4.54,4.54v1.12h-3.03v-1.12c0-.83-.67-1.5-1.5-1.5H8.84c-.83,0-1.5.67-1.5,1.5v7.65c0,.83.67,1.5,1.5,1.5h20.2c.83,0,1.5-.67,1.5-1.5v-1.12h3.03v1.12c0,2.5-2.03,4.54-4.54,4.54H8.84Z"/>
  <path class="cls-1" d="m151.83,29.62c-2.5,0-4.53-2.03-4.53-4.54v-7.65c0-2.5,2.03-4.54,4.53-4.54h20.2c2.5,0,4.54,2.03,4.54,4.54v7.65c0,2.5-2.03,4.54-4.54,4.54h-20.2Zm0-13.69c-.83,0-1.5.67-1.5,1.5v7.65c0,.83.67,1.5,1.5,1.5h20.2c.83,0,1.5-.67,1.5-1.5v-7.65c0-.83-.67-1.5-1.5-1.5h-20.2Z"/>
  <polygon class="cls-1" points="205.83 29.62 184.16 16.76 184.16 29.62 181.13 29.62 181.13 12.9 183.59 12.9 205.26 25.76 205.26 12.9 208.3 12.9 208.3 29.62 205.83 29.62"/>
  <polygon class="cls-1" points="70.19 29.62 55.55 15.3 40.91 29.62 36.57 29.62 53.67 12.9 57.43 12.9 74.53 29.62 70.19 29.62"/>
  <path class="cls-1" d="m102.58,29.62l-11.74-6.97v-2.91h10.35c1.05,0,1.91-.85,1.91-1.91s-.85-1.91-1.91-1.91h-21.31v13.69h-3.03V12.9h24.34c2.72,0,4.94,2.22,4.94,4.94s-2.22,4.94-4.94,4.94h-4.2l11.53,6.84h-5.94Z"/>
</svg>